<svg width="117" height="170" viewBox="0 0 117 170" fill="none" xmlns="http://www.w3.org/2000/svg">
<path d="M454.248 43.281V75.616C451.23 75.3742 449.118 75.1627 446.432 75.1627C427.179 75.1627 414.414 85.6791 414.414 108.797V165.671H379.5V45.0941H412.694V60.9897C421.355 49.3551 435.689 43.281 454.248 43.281ZM488.65 80.9649C488.65 74.6792 494.685 69.7534 508.748 69.7534C519.776 69.6961 530.584 72.8455 539.86 78.8193L550.301 53.9183C540.041 47.2095 523.595 43.3716 508.748 43.3716C477.213 43.281 458.684 59.4485 458.684 82.2945C458.684 130.495 523.927 110.308 523.927 130.042C523.927 136.781 518.525 141.042 504.07 141.042C490.685 140.923 477.631 136.867 466.53 129.377L456.089 154.489C466.108 161.863 484.576 167.484 502.863 167.484C535.183 167.484 553.862 151.558 553.862 129.135C553.922 81.6599 488.65 101.575 488.65 80.9649ZM697.776 139.682C688.15 139.682 682.688 134.091 682.688 123.756V-0.628174H647.863V125.781C647.863 152.676 663.978 167.484 691.077 167.484C697.235 167.457 703.349 166.436 709.183 164.462L707.644 137.264C704.575 138.796 701.204 139.622 697.776 139.682ZM805.085 45.0941V97.3137C805.085 119.525 793.437 129.83 777.322 129.83C761.872 129.83 752.94 120.764 752.94 100.457V45.0941H718.025V105.533C718.025 142.945 739.149 159.929 769.507 159.929C776.062 160.097 782.585 158.955 788.694 156.568C794.804 154.181 800.376 150.598 805.085 146.028V150.047C805.085 171.805 795.006 182.775 771.498 182.775C756.808 182.892 742.489 178.155 730.759 169.297L716.908 194.409C730.759 205.409 752.276 211 774.426 211C816.492 211 840 190.39 840 145.544V45.0941H805.085ZM272.221 25.1492C277.244 25.0836 282.165 26.5716 286.313 29.4102L295.366 4.05587C288.878 -0.416636 278.799 -2.44135 268.72 -2.44135C238.845 -2.44135 222.308 15.1767 222.308 42.3744V47.6326H199.585V72.1105H222.308V165.671H257.223V74.6792H287.219V47.7837H256.317V42.6161C256.317 30.7398 261.93 25.1492 272.221 25.1492ZM300.376 74.6187H329.647V165.701H363.536V47.3908H300.376V74.6187ZM331.941 31.7673H364.11V-0.477076H331.941V31.7673ZM612.586 136.962C603.201 136.962 597.83 131.371 597.83 121.036V71.9594H627.584V45.0639H597.83V15.6904H562.704V121.459C562.704 150.168 579.06 164.734 607.698 164.734C617.643 165.105 627.47 162.485 635.913 157.209L626.86 132.55C622.617 135.488 617.564 137.03 612.405 136.962H612.586ZM97.1944 60.7479L114.335 71.9896C114.89 72.3488 115.51 72.595 116.16 72.7142C116.809 72.8334 117.476 72.8232 118.122 72.6843C118.768 72.5454 119.38 72.2805 119.924 71.9046C120.468 71.5288 120.932 71.0493 121.291 70.4938C121.649 69.9382 121.895 69.3173 122.014 68.6665C122.133 68.0158 122.123 67.348 121.984 66.7011C121.846 66.0543 121.581 65.4412 121.206 64.8968C120.83 64.3523 120.352 63.8873 119.797 63.5281L102.596 52.3469L85.4555 41.1052C84.1635 40.2421 82.6393 39.7942 81.0865 39.8212C79.5336 39.8482 78.0259 40.3488 76.7646 41.2562C75.4239 42.2371 74.4157 43.606 73.8761 45.1785C73.3365 46.7509 73.2914 48.4512 73.7469 50.0502L81.4722 78.6379C81.5043 78.8566 81.5652 79.0699 81.6532 79.2726L100.906 150.893C101.249 152.069 101.85 153.154 102.664 154.069C103.479 154.984 104.486 155.706 105.614 156.182C107.256 156.964 109.126 157.126 110.878 156.637C112.63 156.148 114.147 155.042 115.15 153.522C122.155 147.297 128.323 140.186 133.497 132.368C143.472 118.03 148.475 100.811 147.741 83.3522C147.167 73.138 141.313 61.7452 130.329 49.5062C120.065 38.463 108.665 28.5362 96.3192 19.891C86.0778 12.534 75.4613 5.71528 64.5127 -0.537515C60.2293 -3.11721 55.8178 -5.47738 51.2952 -7.60891C50.6746 -8.20909 49.9082 -8.63639 49.0718 -8.84843C48.2354 -9.06046 47.3583 -9.04987 46.5273 -8.8177H46.2858L45.7728 -8.6666C44.1433 -8.24352 42.1516 -7.69957 33.8529 6.02015C28.0899 15.6826 22.8321 25.6382 18.1006 35.8469C-3.86825 83.2011 -1.87657 107.226 3.64581 119.011C20.1526 154.187 57.9342 164.16 67.1985 166.275C68.4237 166.838 69.7764 167.065 71.118 166.932C72.4595 166.799 73.7417 166.312 74.8332 165.519C76.1714 164.544 77.1784 163.18 77.718 161.613C78.2577 160.045 78.3041 158.35 77.8509 156.756L51.2952 57.8771C50.885 56.263 49.9861 54.8156 48.7218 53.7335C47.4575 52.6513 45.8898 51.9875 44.2338 51.8331C42.664 51.7013 41.0918 52.057 39.7311 52.8519C38.3704 53.6467 37.2873 54.8422 36.6292 56.2754L19.6698 92.539C19.2866 93.1402 19.0359 93.8163 18.9343 94.5222C18.8327 95.2281 18.8826 95.9476 19.0806 96.6327C19.2786 97.3177 19.6203 97.9527 20.0827 98.4951C20.5452 99.0375 21.1178 99.4749 21.7624 99.7782C22.407 100.081 23.1088 100.244 23.8209 100.254C24.533 100.264 25.2391 100.122 25.8921 99.8372C26.5451 99.5525 27.13 99.1317 27.6077 98.6027C28.0854 98.0738 28.445 97.4489 28.6625 96.7697L43.0569 66.0968L47.7645 83.6242L37.2026 102.814C36.5784 103.985 36.4406 105.356 36.8191 106.629C37.1976 107.902 38.0618 108.974 39.2244 109.613C39.9646 110.017 40.7956 110.225 41.6386 110.217C42.5377 110.217 43.4204 109.976 44.1951 109.519C44.9698 109.062 45.6083 108.406 46.0444 107.619L51.5668 97.5554L67.2287 155.819C59.5966 153.922 52.2205 151.112 45.2598 147.448C31.1248 140.494 19.6862 129.05 12.7291 114.902C6.69368 102.3 10.5865 78.6379 23.3514 48.6903C29.5227 34.0479 36.8487 19.9209 45.2598 6.44322L88.8655 166.758C89.3484 168.602 94.0258 185.072 106.459 188.668C108.014 189.139 109.632 189.373 111.257 189.363C117.021 189.363 123.086 186.341 129.363 180.72C129.848 180.273 130.241 179.736 130.519 179.137C130.797 178.539 130.955 177.891 130.983 177.232C131.011 176.572 130.909 175.914 130.683 175.294C130.456 174.674 130.111 174.104 129.665 173.618C129.219 173.132 128.682 172.739 128.084 172.46C127.487 172.182 126.84 172.024 126.181 171.996C125.523 171.968 124.865 172.07 124.246 172.297C123.627 172.523 123.059 172.87 122.573 173.316C117.353 178.151 112.886 180.085 109.326 179.028C103.29 177.335 99.518 167.484 98.6127 164.16L55.5803 5.92949C68.9847 13.3991 81.8877 21.7373 94.2068 30.8909C121.366 51.2287 136.877 70.1765 137.631 83.9566C139.352 114.902 117.685 137.536 109.778 144.759L94.4483 87.8549L102.204 92.2368C102.958 92.6642 103.812 92.8832 104.678 92.8714C105.781 92.8675 106.851 92.4996 107.724 91.8245C108.596 91.1495 109.222 90.2051 109.504 89.1378C109.785 88.0704 109.708 86.9398 109.283 85.9211C108.858 84.9024 108.109 84.0526 107.153 83.5033L90.7968 74.2259L85.0029 52.7397L97.1944 60.7479Z" fill="white" fill-opacity="0.1"/>
</svg>
