<svg width="18" height="18" viewBox="0 0 18 18" fill="white" xmlns="http://www.w3.org/2000/svg">
<path d="M2.5 2.5C2.5 1.83696 2.76339 1.20107 3.23223 0.732233C3.70107 0.263392 4.33696 0 5 0C5.66304 0 6.29893 0.263392 6.76777 0.732233C7.23661 1.20107 7.5 1.83696 7.5 2.5C7.5 3.16304 7.23661 3.79893 6.76777 4.26777C6.29893 4.73661 5.66304 5 5 5C4.33696 5 3.70107 4.73661 3.23223 4.26777C2.76339 3.79893 2.5 3.16304 2.5 2.5V2.5ZM10.9738 4.48L11.0263 4.52C11.5566 4.91313 12.221 5.08052 12.8743 4.98564C13.5276 4.89076 14.1169 4.5413 14.5135 4.01354C14.9101 3.48578 15.0819 2.82257 14.9913 2.16862C14.9008 1.51468 14.5552 0.923114 14.0301 0.523015C13.505 0.122915 12.8429 -0.0532293 12.1884 0.0330214C11.5338 0.119272 10.94 0.460916 10.5364 0.983394C10.1329 1.50587 9.95237 2.16676 10.0343 2.82184C10.1162 3.47692 10.4539 4.073 10.9738 4.48V4.48ZM6.585 6.25C6.742 5.9527 6.95736 5.69013 7.21818 5.47799C7.47901 5.26584 7.77994 5.10849 8.10298 5.01534C8.42603 4.92218 8.76454 4.89514 9.09827 4.93584C9.43201 4.97654 9.7541 5.08413 10.0453 5.25218C10.3365 5.42024 10.5908 5.6453 10.793 5.9139C10.9952 6.18251 11.1411 6.48914 11.2221 6.81545C11.3031 7.14176 11.3174 7.48105 11.2642 7.81302C11.211 8.14499 11.0914 8.46282 10.9125 8.7475C10.5684 9.29516 10.0254 9.68814 9.39767 9.84389C8.76992 9.99964 8.10623 9.90604 7.54603 9.58274C6.98584 9.25944 6.57275 8.73161 6.39354 8.11014C6.21434 7.48867 6.28296 6.82193 6.585 6.25V6.25ZM1.875 6.25H5.2125C4.99034 6.88445 4.94204 7.56679 5.0726 8.22621C5.20317 8.88562 5.50784 9.49808 5.955 10H5.625C4.98055 9.99991 4.35181 10.199 3.82486 10.57C3.2979 10.941 2.89847 11.4658 2.68125 12.0725C2.26167 11.904 1.86881 11.6753 1.515 11.3937C0.575 10.6375 0 9.52 0 8.125C0 7.62772 0.197544 7.15081 0.549175 6.79917C0.900806 6.44754 1.37772 6.25 1.875 6.25V6.25ZM11.875 10C12.5193 9.99998 13.1478 10.1991 13.6746 10.5701C14.2013 10.9411 14.6005 11.4659 14.8175 12.0725C15.2425 11.8987 15.6363 11.6725 15.985 11.3937C16.925 10.6375 17.5 9.52 17.5 8.125C17.5 7.62772 17.3025 7.15081 16.9508 6.79917C16.5992 6.44754 16.1223 6.25 15.625 6.25H12.2875C12.425 6.64125 12.5 7.0625 12.5 7.5C12.5012 8.42264 12.161 9.31311 11.545 10H11.875ZM13.6088 12.41C13.7 12.63 13.75 12.8725 13.75 13.125C13.75 14.52 13.1763 15.6375 12.235 16.3937C11.3088 17.1375 10.0662 17.5 8.75 17.5C7.43375 17.5 6.19125 17.1375 5.265 16.3937C4.325 15.6375 3.75 14.52 3.75 13.125C3.74934 12.8786 3.79739 12.6345 3.89138 12.4067C3.98538 12.1789 4.12346 11.9719 4.2977 11.7977C4.47194 11.6235 4.67891 11.4854 4.90669 11.3914C5.13447 11.2974 5.37859 11.2493 5.625 11.25H11.875C12.2464 11.2499 12.6094 11.3601 12.9181 11.5666C13.2267 11.7732 13.4671 12.0667 13.6088 12.41Z"/>
</svg>
