<svg width="20" height="20" viewBox="0 0 20 20" fill="none" xmlns="http://www.w3.org/2000/svg">
<path d="M10.2172 3.9568C10.159 3.90117 10.0817 3.87012 10.0012 3.87012C9.92069 3.87012 9.84331 3.90117 9.78515 3.9568L2.59375 10.8267C2.56321 10.8559 2.53891 10.891 2.52233 10.9299C2.50574 10.9688 2.49722 11.0106 2.49727 11.0529L2.49609 17.5005C2.49609 17.8321 2.62779 18.15 2.86221 18.3844C3.09663 18.6188 3.41457 18.7505 3.74609 18.7505H7.5C7.66576 18.7505 7.82473 18.6847 7.94194 18.5675C8.05915 18.4503 8.125 18.2913 8.125 18.1255V12.813C8.125 12.7302 8.15792 12.6507 8.21653 12.5921C8.27513 12.5335 8.35462 12.5005 8.4375 12.5005H11.5625C11.6454 12.5005 11.7249 12.5335 11.7835 12.5921C11.8421 12.6507 11.875 12.7302 11.875 12.813V18.1255C11.875 18.2913 11.9408 18.4503 12.0581 18.5675C12.1753 18.6847 12.3342 18.7505 12.5 18.7505H16.2523C16.5839 18.7505 16.9018 18.6188 17.1362 18.3844C17.3706 18.15 17.5023 17.8321 17.5023 17.5005V11.0529C17.5024 11.0106 17.4939 10.9688 17.4773 10.9299C17.4607 10.891 17.4364 10.8559 17.4059 10.8267L10.2172 3.9568Z" fill="#27AF66"/>
<path d="M19.1762 9.53808L16.2543 6.74277V2.50098C16.2543 2.33522 16.1885 2.17624 16.0712 2.05903C15.954 1.94182 15.7951 1.87598 15.6293 1.87598H13.7543C13.5885 1.87598 13.4296 1.94182 13.3124 2.05903C13.1952 2.17624 13.1293 2.33522 13.1293 2.50098V3.75098L10.8668 1.5877C10.6551 1.37363 10.3402 1.25098 10 1.25098C9.66095 1.25098 9.34689 1.37363 9.13517 1.58809L0.826577 9.5373C0.583609 9.77168 0.55314 10.1572 0.774233 10.4111C0.829753 10.4752 0.897734 10.5273 0.974038 10.5643C1.05034 10.6013 1.13337 10.6224 1.21808 10.6263C1.30278 10.6301 1.38739 10.6167 1.46675 10.5869C1.54611 10.557 1.61856 10.5113 1.6797 10.4525L9.78517 2.70723C9.84332 2.65159 9.9207 2.62054 10.0012 2.62054C10.0817 2.62054 10.159 2.65159 10.2172 2.70723L18.3234 10.4525C18.4429 10.567 18.6028 10.6295 18.7682 10.6263C18.9336 10.6231 19.091 10.5544 19.2059 10.4354C19.4457 10.1869 19.4258 9.77676 19.1762 9.53808Z" fill="#27AF66"/>
</svg>
