<svg xmlns="http://www.w3.org/2000/svg" xmlns:xlink="http://www.w3.org/1999/xlink" viewBox="0 0 278.36 72.79"><defs><style>.cls-1{fill:url(#linear-gradient);}</style><linearGradient id="linear-gradient" y1="36.39" x2="278.36" y2="36.39" gradientUnits="userSpaceOnUse"><stop offset="0" stop-color="#31d67d"/><stop offset="1" stop-color="#73dfe3"/></linearGradient></defs><g id="Layer_2" data-name="Layer 2"><g id="FULL_LOGO_-_H" data-name="FULL LOGO - H"><path id="Gradient_logo" data-name="Gradient logo" class="cls-1" d="M150.53,17.3V28c-1-.08-1.7-.15-2.59-.15-6.38,0-10.61,3.48-10.61,11.13V57.8H125.76V17.9h11v5.26C139.63,19.31,144.38,17.3,150.53,17.3Zm11.4,12.47c0-2.08,2-3.71,6.66-3.71a18.88,18.88,0,0,1,10.31,3l3.46-8.24c-3.4-2.22-8.85-3.49-13.77-3.49C158.14,17.3,152,22.65,152,30.21c0,15.95,21.62,9.27,21.62,15.8,0,2.23-1.79,3.64-6.58,3.64a22.62,22.62,0,0,1-12.44-3.86l-3.46,8.31c3.32,2.44,9.44,4.3,15.5,4.3,10.71,0,16.9-5.27,16.9-12.69C183.56,30,161.93,36.59,161.93,29.77Zm69.3,19.43c-3.19,0-5-1.85-5-5.27V2.77H214.69V44.6c0,8.9,5.34,13.8,14.32,13.8a19,19,0,0,0,6-1l-.51-9A7.63,7.63,0,0,1,231.23,49.2Zm35.56-31.3V35.18c0,7.35-3.86,10.76-9.2,10.76-5.12,0-8.08-3-8.08-9.72V17.9H237.94v20c0,12.38,7,18,17.06,18a16.34,16.34,0,0,0,11.79-4.6v1.33c0,7.2-3.34,10.83-11.13,10.83A22.13,22.13,0,0,1,242.16,59l-4.59,8.31c4.59,3.64,11.72,5.49,19.06,5.49,13.94,0,21.73-6.82,21.73-21.66V17.9ZM90.21,11.3a8.09,8.09,0,0,1,4.67,1.41l3-8.39c-2.15-1.48-5.49-2.15-8.83-2.15C79.15,2.17,73.67,8,73.67,17v1.74H66.14v8.1h7.53V57.8H85.24V27.69h9.94v-8.9h0v0H84.94V17.08C84.94,13.15,86.8,11.3,90.21,11.3Zm9.33,16.37h9.7V57.81h11.23V18.66H99.54ZM110,13.49h10.66V2.82H110Zm93,34.81c-3.11,0-4.89-1.85-4.89-5.27V26.79h9.86v-8.9h-9.86V8.17H186.47v35c0,9.5,5.42,14.32,14.91,14.32A16.5,16.5,0,0,0,210.73,55l-3-8.16A8.23,8.23,0,0,1,202.94,48.3ZM32.21,23.08l5.68,3.72A1.66,1.66,0,1,0,39.7,24L34,20.3l-5.68-3.72a2.53,2.53,0,0,0-2.88.05,2.69,2.69,0,0,0-1,2.91L27,29a.83.83,0,0,0,.06.21l6.38,23.7A2.73,2.73,0,0,0,35,54.66a2.5,2.5,0,0,0,3.16-.88,35.81,35.81,0,0,0,6.08-7,26.43,26.43,0,0,0,4.72-16.22c-.19-3.38-2.13-7.15-5.77-11.2a70.9,70.9,0,0,0-11.27-9.8A120.48,120.48,0,0,0,21.38,2.8,48.92,48.92,0,0,0,17,.46a1.64,1.64,0,0,0-1.58-.4l-.08,0-.17.05c-.54.14-1.2.32-3.95,4.86A107.54,107.54,0,0,0,6,14.84C-1.28,30.51-.62,38.46,1.21,42.36,6.68,54,19.2,57.3,22.27,58a2.52,2.52,0,0,0,2.53-.25,2.68,2.68,0,0,0,1-2.9L17,22.13a2.67,2.67,0,0,0-2.34-2,2.54,2.54,0,0,0-2.52,1.47l-5.62,12A1.66,1.66,0,1,0,9.5,35l4.77-10.15,1.56,5.8L12.33,37A1.67,1.67,0,0,0,13,39.25a1.64,1.64,0,0,0,.8.2,1.67,1.67,0,0,0,1.46-.86l1.83-3.33,5.19,19.28A32.44,32.44,0,0,1,15,51.77,23.63,23.63,0,0,1,4.22,41c-2-4.17-.71-12,3.52-21.91A99.06,99.06,0,0,1,15,5.11L29.45,58.16c.16.61,1.71,6.06,5.83,7.25a5.37,5.37,0,0,0,1.59.23c1.91,0,3.92-1,6-2.86a1.66,1.66,0,1,0-2.25-2.45c-1.73,1.6-3.21,2.24-4.39,1.89-2-.56-3.25-3.82-3.55-4.92L18.42,4.94a116.76,116.76,0,0,1,12.8,8.26c9,6.73,14.14,13,14.39,17.56C46.18,41,39,48.49,36.38,50.88L31.3,32.05l2.57,1.45a1.62,1.62,0,0,0,.82.21,1.66,1.66,0,0,0,.82-3.1l-5.42-3.07-1.92-7.11Z"/></g></g></svg>