<svg width="17" height="21" viewBox="0 0 17 21" fill="none" xmlns="http://www.w3.org/2000/svg">
<path d="M6.06145 0.00603632C5.94981 0.0226385 5.84318 0.0636075 5.74915 0.126036C5.74915 0.126036 4.77607 0.738344 3.72991 1.40065C2.68376 2.06219 1.51991 2.79142 1.25376 2.93911C1.23734 2.94624 1.22118 2.95394 1.2053 2.96219C0.239145 3.55834 0.0383761 4.53219 0.00376068 5.07834C0.00145299 5.10373 0.00376068 5.1245 0.00376068 5.15142C-0.00470085 5.35604 0.00376068 5.48758 0.00376068 5.48758V15.536C0.00376068 16.996 1.70607 17.6983 3.32145 17.6983C3.85991 17.6983 4.39838 17.6114 4.85991 17.4576C5.16761 17.3037 5.38838 16.996 5.38838 16.6883V8.61142C5.38838 6.84219 5.77299 6.01142 6.92684 5.31911C7.23453 5.16527 10.4607 2.93834 10.4607 2.93834C10.6145 2.7845 10.773 2.47219 10.773 2.24142V2.16911C10.773 1.86142 10.6191 1.62604 10.3884 1.47219C10.1576 1.31834 9.84991 1.31834 9.61915 1.47219C9.54222 1.54911 4.84991 4.70834 3.84991 5.24681C2.84991 5.86219 1.91684 6.01065 1.68607 5.70296C1.61453 5.63142 1.55222 5.41219 1.54222 5.19834V5.14988C1.54299 4.94065 1.59684 4.54681 2.02299 4.2845C2.4553 4.04373 3.52838 3.35834 4.57145 2.69834C5.01222 2.41911 5.06684 2.38911 5.41222 2.16911C5.45769 2.35703 5.57225 2.52094 5.73311 2.6282C5.89396 2.73547 6.08931 2.77823 6.28027 2.74797C6.47123 2.71771 6.64379 2.61666 6.7636 2.46492C6.88341 2.31318 6.94169 2.12188 6.92684 1.92911V0.775267C6.9277 0.665625 6.90511 0.557065 6.86058 0.456867C6.81606 0.356668 6.75063 0.267145 6.66868 0.194301C6.58673 0.121456 6.49015 0.0669724 6.38542 0.0345026C6.2807 0.00203289 6.17024 -0.00767277 6.06145 0.00603632ZM12.2153 2.69834C12.093 2.71869 11.9774 2.7683 11.8784 2.84296C11.8784 2.84296 8.00607 5.44834 7.3353 5.89527C7.32717 5.90329 7.31922 5.9115 7.31145 5.91988C6.75453 6.33757 6.42453 6.8345 6.27761 7.28911C6.19528 7.54558 6.15477 7.81362 6.15761 8.08296V8.32373C6.1565 8.34756 6.1565 8.37143 6.15761 8.39527V17.6983C6.15761 19.1599 7.84068 20.006 9.37914 20.006C10.0715 20.006 10.6961 19.8568 11.1576 19.5491C12.0807 19.0107 16.5422 15.5353 16.5422 15.5353C16.773 15.3814 16.9268 15.1645 16.9268 14.9337V4.93373C16.9268 4.54911 16.7776 4.31834 16.4699 4.1645C16.2391 4.01065 15.8599 4.08296 15.6291 4.23681C14.3984 5.15988 11.0853 7.76604 10.3161 8.22757C9.23915 8.84296 8.22453 8.99681 7.83991 8.61219C7.68607 8.45834 7.69607 8.31373 7.69607 8.08296C7.70068 7.95065 7.7153 7.83681 7.74453 7.74604C7.78761 7.61219 7.8753 7.44757 8.20068 7.19373C8.21607 7.18142 8.20838 7.18219 8.22453 7.16988C8.78068 6.79834 10.4815 5.63911 11.5907 4.88527C11.6535 5.05386 11.7735 5.19509 11.9297 5.28439C12.0859 5.37369 12.2684 5.40541 12.4456 5.37404C12.6228 5.34267 12.7833 5.25019 12.8994 5.11268C13.0154 4.97517 13.0796 4.80134 13.0807 4.62142V3.46757C13.0815 3.35793 13.059 3.24937 13.0144 3.14917C12.9699 3.04898 12.9045 2.95945 12.8225 2.88661C12.7406 2.81376 12.644 2.75928 12.5393 2.72681C12.4345 2.69434 12.3241 2.68463 12.2153 2.69834ZM15.3884 8.32373V9.86219L11.5422 12.8422V11.3037L15.3884 8.32373Z" fill="white"/>
</svg>
