<svg width="15" height="16" viewBox="0 0 15 16" fill="none" xmlns="http://www.w3.org/2000/svg">
<path d="M13.9933 1.62154C13.9879 1.59562 13.9753 1.57178 13.9569 1.55278C13.9384 1.53379 13.915 1.52045 13.8892 1.51431C12.1733 1.09478 8.20859 2.5898 6.06054 4.73696C5.67742 5.11699 5.32815 5.52968 5.0167 5.97036C4.35429 5.91177 3.69189 5.96069 3.12734 6.20679C1.53447 6.90786 1.0707 8.73716 0.941501 9.52407C0.934173 9.56714 0.936937 9.61133 0.949577 9.65315C0.962216 9.69497 0.984386 9.73329 1.01434 9.76509C1.0443 9.79689 1.08123 9.82131 1.12222 9.83643C1.16321 9.85154 1.20715 9.85694 1.25058 9.8522L3.80849 9.57007C3.81032 9.76292 3.82196 9.95555 3.84336 10.1472C3.85623 10.2803 3.91531 10.4047 4.01035 10.4988L5.00087 11.487C5.09503 11.5819 5.21938 11.6409 5.35244 11.654C5.54303 11.6753 5.73459 11.6869 5.92636 11.6888L5.6457 14.2435C5.64102 14.2869 5.64646 14.3308 5.66159 14.3718C5.67673 14.4128 5.70115 14.4497 5.73294 14.4796C5.76472 14.5095 5.80302 14.5317 5.84481 14.5444C5.8866 14.557 5.93076 14.5599 5.97382 14.5526C6.75927 14.4266 8.59179 13.9628 9.28876 12.37C9.53486 11.8054 9.58525 11.1462 9.52841 10.4871C9.97016 10.1756 10.3839 9.82622 10.765 9.44292C12.9198 7.29897 14.4063 3.42271 13.9933 1.62154ZM8.61523 6.8853C8.41847 6.68867 8.28445 6.4381 8.23011 6.16529C8.17578 5.89248 8.20357 5.60968 8.30998 5.35267C8.41639 5.09566 8.59663 4.87598 8.8279 4.72142C9.05918 4.56686 9.3311 4.48436 9.60927 4.48436C9.88744 4.48436 10.1594 4.56686 10.3906 4.72142C10.6219 4.87598 10.8022 5.09566 10.9086 5.35267C11.015 5.60968 11.0428 5.89248 10.9884 6.16529C10.9341 6.4381 10.8001 6.68867 10.6033 6.8853C10.4728 7.01596 10.3179 7.11962 10.1473 7.19034C9.97676 7.26106 9.79392 7.29746 9.60927 7.29746C9.42462 7.29746 9.24179 7.26106 9.07122 7.19034C8.90065 7.11962 8.7457 7.01596 8.61523 6.8853Z" />
<path d="M4.93359 12.2028C4.77305 12.3636 4.51553 12.4263 4.20557 12.4799C3.50918 12.5986 2.89424 11.9968 3.01934 11.2928C3.06709 11.0259 3.2083 10.6518 3.29619 10.5639C3.3154 10.5451 3.32819 10.5207 3.33273 10.4941C3.33728 10.4676 3.33336 10.4403 3.32152 10.4162C3.30968 10.392 3.29053 10.3722 3.26679 10.3595C3.24305 10.3469 3.21592 10.342 3.18926 10.3457C2.79983 10.3933 2.43754 10.5699 2.16006 10.8472C1.47129 11.5366 1.40625 14.0945 1.40625 14.0945C1.40625 14.0945 3.96562 14.0294 4.65439 13.3401C4.93261 13.0628 5.10939 12.7 5.15625 12.31C5.16709 12.1875 5.01797 12.1146 4.93359 12.2028Z"/>
</svg>
